# xmcd CD database file
# Copyright (C) 1997 Ti Kan
# 
# Track frame offsets:
#     150
#     18417
#     32625
#     50240
#     61527
#     83750
#     98425
#     113287
#     134852
#     146400
#     161222
#     173175
#     184180
#     198210
#     209875
#     223440
#     237667
#     255900
#     270177
#     284987
#     297510
# 
# Disc length: 4149 seconds
# 
# Revision: 1
# Processed by: cddbd v1.4b41PL1 Copyright (c) Steve Scherf et al.
# Submitted via: DiscPlay 4.0.4
# 
DISCID=46103315
DTITLE=Leonardo - 21 Grandes Sucessos De Leonardo
DYEAR=1900
DGENRE=
TTITLE0=Viva Bombacha
TTITLE1=Morocha N o
TTITLE2=Tert lia
TTITLE3=Xote Antigo
TTITLE4=C u, Sol, Sul Terra E Cor
TTITLE5=Pedido De Casamento
TTITLE6=Chimarrita Galponeira
TTITLE7=Mate Lavado
TTITLE8=Sistema Antigo
TTITLE9=A Volta Do Ga cho
TTITLE10=Poesia Louca
TTITLE11=Doce Amargo Do Amor
TTITLE12=Passo Fundo Tch 
TTITLE13=Assombra  o
TTITLE14=Valsa Da Prenda Jovem
TTITLE15=Queimadas E Coivaras
TTITLE16=Mexerico
TTITLE17=Teje Preso
TTITLE18=Viva A Gaita
TTITLE19=Xote Largado
TTITLE20=Semente
EXTD=
EXTT0=
EXTT1=
EXTT2=
EXTT3=
EXTT4=
EXTT5=
EXTT6=
EXTT7=
EXTT8=
EXTT9=
EXTT10=
EXTT11=
EXTT12=
EXTT13=
EXTT14=
EXTT15=
EXTT16=
EXTT17=
EXTT18=
EXTT19=
EXTT20=
PLAYORDER=
